<?xml version="1.0" encoding="UTF-8" standalone="no"?>
<svg
   enable-background="new 0 0 1220 450"
   viewBox="0 0 1099.771 341.3692"
   version="1.1"
   id="svg14"
   sodipodi:docname="bluelagoon.svg"
   width="1099.771"
   height="341.3692"
   inkscape:version="1.4.2 (ebf0e940, 2025-05-08)"
   xmlns:inkscape="http://www.inkscape.org/namespaces/inkscape"
   xmlns:sodipodi="http://sodipodi.sourceforge.net/DTD/sodipodi-0.dtd"
   xmlns:xlink="http://www.w3.org/1999/xlink"
   xmlns="http://www.w3.org/2000/svg"
   xmlns:svg="http://www.w3.org/2000/svg">
  <defs
     id="defs14">
    <linearGradient
       id="linearGradient15"
       inkscape:collect="always">
      <stop
         style="stop-color:#1479c4;stop-opacity:1;"
         offset="0"
         id="stop15" />
      <stop
         style="stop-color:#2b3990;stop-opacity:1;"
         offset="1"
         id="stop16" />
    </linearGradient>
    <linearGradient
       inkscape:collect="always"
       xlink:href="#linearGradient15"
       id="linearGradient16"
       x1="861.38953"
       y1="366.65485"
       x2="1206.2645"
       y2="366.65485"
       gradientUnits="userSpaceOnUse"
       gradientTransform="translate(-110.22895,-65.527822)" />
  </defs>
  <sodipodi:namedview
     id="namedview14"
     pagecolor="#505050"
     bordercolor="#ffffff"
     borderopacity="1"
     inkscape:showpageshadow="0"
     inkscape:pageopacity="0"
     inkscape:pagecheckerboard="1"
     inkscape:deskcolor="#505050"
     inkscape:zoom="0.51806861"
     inkscape:cx="534.67822"
     inkscape:cy="361.92118"
     inkscape:window-width="1512"
     inkscape:window-height="916"
     inkscape:window-x="0"
     inkscape:window-y="38"
     inkscape:window-maximized="1"
     inkscape:current-layer="svg14" />
  <linearGradient
     id="a"
     gradientUnits="userSpaceOnUse"
     x1="562.23993"
     x2="1210"
     y1="238.7198"
     y2="238.7198"
     gradientTransform="translate(-110.22895,-65.527822)">
    <stop
       offset="0"
       stop-color="#00aeef"
       id="stop1" />
    <stop
       offset="1"
       stop-color="#2b3990"
       id="stop2" />
  </linearGradient>
  <linearGradient
     id="b"
     gradientUnits="userSpaceOnUse"
     x1="296.33911"
     x2="425.30209"
     y1="272.96631"
     y2="144.0033"
     gradientTransform="translate(-10.06,5.2092017)">
    <stop
       offset="0"
       stop-color="#4578e6"
       id="stop3" />
    <stop
       offset=".9"
       stop-color="#2bc0e4"
       id="stop4" />
  </linearGradient>
  <linearGradient
     id="c"
     gradientUnits="userSpaceOnUse"
     x1="282.08911"
     x2="123.0271"
     y1="241.3875"
     y2="430.9502"
     gradientTransform="translate(-10.06,5.2092017)">
    <stop
       offset="0"
       stop-color="#4578e6"
       id="stop5" />
    <stop
       offset=".75"
       stop-color="#262d65"
       id="stop6" />
  </linearGradient>
  <linearGradient
     id="d"
     gradientUnits="userSpaceOnUse"
     x1="237.7399"
     x2="-25.232"
     y1="37.895699"
     y2="300.86761"
     gradientTransform="translate(-10.06,5.2092017)">
    <stop
       offset=".15"
       stop-color="#4578e6"
       id="stop7" />
    <stop
       offset=".95"
       stop-color="#262d65"
       id="stop8" />
  </linearGradient>
  <linearGradient
     id="e"
     gradientUnits="userSpaceOnUse"
     x1="231.6333"
     x2="394.61792"
     y1="113.8652"
     y2="109.16486"
     gradientTransform="translate(-10.06,5.2092017)">
    <stop
       offset="0"
       stop-color="#4578e6"
       id="stop9" />
    <stop
       offset=".55"
       stop-color="#2bc0e4"
       id="stop10" />
  </linearGradient>
  <path
     d="M 477.34105,62.982178 V 238.17218 h -25.33 V 48.312178 Z m 101.41,65.520002 h 25.45 v 109.67 h -25.45 v -11.48 c -10.43,9.76 -21.66,14.64 -33.67,14.64 -15.16,0 -27.7,-5.48 -37.61,-16.44 -9.83,-11.18 -14.75,-25.15 -14.75,-41.89 0,-16.44 4.92,-30.14 14.75,-41.1 9.83,-10.96 22.14,-16.44 36.93,-16.44 12.76,0 24.21,5.25 34.34,15.76 v -12.72 z m -60.13,54.5 c 0,10.51 2.81,19.07 8.44,25.67 5.78,6.68 13.06,10.02 21.84,10.02 9.38,0 16.96,-3.23 22.74,-9.68 5.78,-6.68 8.67,-15.16 8.67,-25.45 0,-10.28 -2.89,-18.76 -8.67,-25.45 -5.78,-6.53 -13.29,-9.8 -22.52,-9.8 -8.71,0 -15.99,3.3 -21.84,9.91 -5.77,6.69 -8.66,14.94 -8.66,24.78 z m 212.09,52.58 c 0,5.18 -0.17,9.74 -0.51,13.68 -0.34,3.94 -0.81,7.41 -1.41,10.41 -1.8,8.26 -5.33,15.35 -10.58,21.28 -9.91,11.41 -23.53,17.11 -40.87,17.11 -14.64,0 -26.69,-3.94 -36.14,-11.82 -9.76,-8.11 -15.39,-19.33 -16.89,-33.67 h 25.45 c 0.97,5.4 2.59,9.57 4.84,12.5 5.25,6.83 12.91,10.25 22.97,10.25 18.54,0 27.81,-11.37 27.81,-34.12 v -15.31 c -10.06,10.29 -21.66,15.43 -34.79,15.43 -14.94,0 -27.17,-5.4 -36.71,-16.21 -9.61,-10.96 -14.41,-24.66 -14.41,-41.1 0,-15.99 4.46,-29.57 13.4,-40.76 9.61,-11.86 22.29,-17.79 38.06,-17.79 13.81,0 25.29,5.14 34.45,15.43 v -12.39 h 25.33 z m -24.33,-52.02 c 0,-10.66 -2.85,-19.18 -8.56,-25.56 -5.78,-6.53 -13.17,-9.8 -22.18,-9.8 -9.61,0 -17.19,3.57 -22.74,10.7 -5.03,6.38 -7.54,14.64 -7.54,24.77 0,9.98 2.51,18.17 7.54,24.55 5.48,6.98 13.06,10.47 22.74,10.47 9.68,0 17.34,-3.53 22.97,-10.58 5.19,-6.38 7.77,-14.57 7.77,-24.55 z m 39.59,-1.01 c 0,-15.84 5.67,-29.31 17,-40.42 11.33,-11.11 25.15,-16.66 41.43,-16.66 16.36,0 30.25,5.59 41.66,16.78 11.26,11.19 16.89,24.92 16.89,41.21 0,16.44 -5.67,30.21 -17,41.32 -11.41,11.03 -25.41,16.55 -42,16.55 -16.44,0 -30.21,-5.63 -41.32,-16.89 -11.1,-11.12 -16.66,-25.08 -16.66,-41.89 z m 25.9,0.45 c 0,10.96 2.93,19.63 8.78,26.01 6.01,6.46 13.92,9.68 23.76,9.68 9.91,0 17.83,-3.19 23.76,-9.57 5.93,-6.38 8.9,-14.9 8.9,-25.56 0,-10.66 -2.97,-19.18 -8.9,-25.56 -6.01,-6.46 -13.92,-9.68 -23.76,-9.68 -9.68,0 -17.53,3.23 -23.53,9.68 -6.01,6.46 -9.01,14.79 -9.01,25 z m 101.18,-0.45 c 0,-15.84 5.67,-29.31 17,-40.42 11.33,-11.11 25.15,-16.66 41.44,-16.66 16.36,0 30.25,5.59 41.66,16.78 11.26,11.19 16.89,24.92 16.89,41.21 0,16.44 -5.67,30.21 -17,41.32 -11.41,11.03 -25.41,16.55 -42,16.55 -16.44,0 -30.21,-5.63 -41.32,-16.89 -11.12,-11.12 -16.67,-25.08 -16.67,-41.89 z m 25.9,0.45 c 0,10.96 2.93,19.63 8.78,26.01 6.01,6.46 13.92,9.68 23.76,9.68 9.91,0 17.83,-3.19 23.76,-9.57 5.93,-6.38 8.9,-14.9 8.9,-25.56 0,-10.66 -2.97,-19.18 -8.9,-25.56 -6.01,-6.46 -13.92,-9.68 -23.76,-9.68 -9.68,0 -17.53,3.23 -23.53,9.68 -6.01,6.46 -9.01,14.79 -9.01,25 z m 106.35005,-54.5 h 25.45 v 10.13 c 8.86,-8.78 18.84,-13.17 29.95,-13.17 12.76,0 22.71,4.02 29.84,12.05 6.15,6.83 9.23,17.98 9.23,33.44 v 67.22 h -25.45 v -61.25 c 0,-10.81 -1.5,-18.28 -4.5,-22.41 -2.93,-4.2 -8.26,-6.31 -15.99,-6.31 -8.41,0 -14.37,2.78 -17.9,8.33 -3.4501,5.48 -5.1801,15.05 -5.1801,28.71 v 52.92 h -25.45 z"
     fill="url(#a)"
     id="path10"
     inkscape:label="path10"
     style="display:inline;fill:url(#a)" />
  <path
     d="m 221.57,213.4692 163.48,95.34 -81.62412,-141.58044 -49.9771,-5.07956 z"
     fill="url(#b)"
     id="path11"
     sodipodi:nodetypes="ccccc"
     style="display:inline;fill:url(#b)" />
  <path
     d="m 385,341.3892 -192.5,-111.21 -63.8,31.12 -128.7,80.07 z"
     fill="url(#c)"
     id="path12"
     sodipodi:nodetypes="ccccc"
     style="fill:url(#c)" />
  <path
     d="M 192.5,230.1792 V 7.9192017 L 0,341.3692 Z"
     fill="url(#d)"
     id="path13"
     sodipodi:nodetypes="cccc"
     style="fill:url(#d)" />
  <path
     d="M 303.42588,167.22876 221.57,24.679202 V 213.4692 Z"
     fill="url(#e)"
     id="path14"
     style="fill:url(#e)"
     sodipodi:nodetypes="cccc" />
  <text
     xml:space="preserve"
     style="font-size:96px;font-family:Futura;-inkscape-font-specification:'Futura, Normal';text-align:start;writing-mode:lr-tb;direction:ltr;text-anchor:start;fill:url(#linearGradient16);stroke:none"
     x="747.16058"
     y="340.0567"
     id="text14"><tspan
       sodipodi:role="line"
       id="tspan14"
       x="747.16058"
       y="340.0567"
       style="fill:url(#linearGradient16);stroke:none">at home</tspan></text>
  <path
     style="display:none;fill:#ffff00;fill-opacity:1;stroke:#000000;stroke-opacity:1"
     d="M 120.31366,-46.652989 289.28836,245.00813"
     id="path16"
     sodipodi:nodetypes="cc" />
  <path
     style="display:none;fill:#ffff00;fill-opacity:1;stroke:#000000;stroke-opacity:1"
     d="M -100.52386,270.30169 295.7449,43.425848"
     id="path18" />
</svg>
